# xmcd
#
# Track frame offsets:
#	150
#	3180
#	12591
#	26780
#	43952
#	59994
#	75528
#	97032
#	109515
#	127230
#	146777
#	157400
#	170781
#	184442
#	212974
#	230313
#	243409
#	259458
#	271753
#	295368
#	312588
#
# Disc length: 4447 seconds
#
# Revision: 1
# Processed by: cddbd v1.5.1PL2 Copyright (c) Steve Scherf et al.
# Submitted via: EasyCDDAExtractor 9.0.0.1
#
DISCID=53115d15
DTITLE=Alice Cooper - Civic Center Oshawa 10-05-06 Disc 1
DYEAR=2006
DGENRE=Hard Rock
TTITLE0=Intro
TTITLE1=Department Of Youth
TTITLE2=No More Mr Nice Guy
TTITLE3=Dirty Diamonds
TTITLE4=Billion Dollar Babies
TTITLE5=Be My Lover
TTITLE6=Lost In America
TTITLE7=I Never Cry
TTITLE8=Woman Of Massdestruction
TTITLE9=Eighteen
TTITLE10=You Drive Me Nervous
TTITLE11=Is It My Body
TTITLE12=Go To Hell
TTITLE13=Black Widow Jam
TTITLE14=Feed My Frankenstein
TTITLE15=Welcome To My Nightmare
TTITLE16=Steven
TTITLE17=Only Women Bleed
TTITLE18=Ballad Of Dwight Fry
TTITLE19=Guilliotine
TTITLE20=School's Out
EXTD=
EXTT0=
EXTT1=
EXTT2=
EXTT3=
EXTT4=
EXTT5=
EXTT6=
EXTT7=
EXTT8=
EXTT9=
EXTT10=
EXTT11=
EXTT12=
EXTT13=
EXTT14=
EXTT15=
EXTT16=
EXTT17=
EXTT18=
EXTT19=
EXTT20=
PLAYORDER=
